<svg version="1.1" xmlns="http://www.w3.org/2000/svg" xmlns:xlink="http://www.w3.org/1999/xlink" width="948" height="540"><defs/><g><text fill="#eeeeee" stroke="none" font-family="Arial" font-size="24px" font-style="normal" font-weight="normal" text-decoration="none" x="0" y="0">UNREGISTERED</text><text fill="#eeeeee" stroke="none" font-family="Arial" font-size="24px" font-style="normal" font-weight="normal" text-decoration="none" x="0" y="30">UNREGISTERED</text><text fill="#eeeeee" stroke="none" font-family="Arial" font-size="24px" font-style="normal" font-weight="normal" text-decoration="none" x="0" y="60">UNREGISTERED</text><text fill="#eeeeee" stroke="none" font-family="Arial" font-size="24px" font-style="normal" font-weight="normal" text-decoration="none" x="0" y="90">UNREGISTERED</text><text fill="#eeeeee" stroke="none" font-family="Arial" font-size="24px" font-style="normal" font-weight="normal" text-decoration="none" x="0" y="120">UNREGISTERED</text><text fill="#eeeeee" stroke="none" font-family="Arial" font-size="24px" font-style="normal" font-weight="normal" text-decoration="none" x="0" y="150">UNREGISTERED</text><text fill="#eeeeee" stroke="none" font-family="Arial" font-size="24px" font-style="normal" font-weight="normal" text-decoration="none" x="0" y="180">UNREGISTERED</text><text fill="#eeeeee" stroke="none" font-family="Arial" font-size="24px" font-style="normal" font-weight="normal" text-decoration="none" x="0" y="210">UNREGISTERED</text><text fill="#eeeeee" stroke="none" font-family="Arial" font-size="24px" font-style="normal" font-weight="normal" text-decoration="none" x="0" y="240">UNREGISTERED</text><text fill="#eeeeee" stroke="none" font-family="Arial" font-size="24px" font-style="normal" font-weight="normal" text-decoration="none" x="0" y="270">UNREGISTERED</text><text fill="#eeeeee" stroke="none" font-family="Arial" font-size="24px" font-style="normal" font-weight="normal" text-decoration="none" x="0" y="300">UNREGISTERED</text><text fill="#eeeeee" stroke="none" font-family="Arial" font-size="24px" font-style="normal" font-weight="normal" text-decoration="none" x="0" y="330">UNREGISTERED</text><text fill="#eeeeee" stroke="none" font-family="Arial" font-size="24px" font-style="normal" font-weight="normal" text-decoration="none" x="0" y="360">UNREGISTERED</text><text fill="#eeeeee" stroke="none" font-family="Arial" font-size="24px" font-style="normal" font-weight="normal" text-decoration="none" x="0" y="390">UNREGISTERED</text><text fill="#eeeeee" stroke="none" font-family="Arial" font-size="24px" font-style="normal" font-weight="normal" text-decoration="none" x="0" y="420">UNREGISTERED</text><text fill="#eeeeee" stroke="none" font-family="Arial" font-size="24px" font-style="normal" font-weight="normal" text-decoration="none" x="0" y="450">UNREGISTERED</text><text fill="#eeeeee" stroke="none" font-family="Arial" font-size="24px" font-style="normal" font-weight="normal" text-decoration="none" x="0" y="480">UNREGISTERED</text><text fill="#eeeeee" stroke="none" font-family="Arial" font-size="24px" font-style="normal" font-weight="normal" text-decoration="none" x="0" y="510">UNREGISTERED</text><text fill="#eeeeee" stroke="none" font-family="Arial" font-size="24px" font-style="normal" font-weight="normal" text-decoration="none" x="200" y="0">UNREGISTERED</text><text fill="#eeeeee" stroke="none" font-family="Arial" font-size="24px" font-style="normal" font-weight="normal" text-decoration="none" x="200" y="30">UNREGISTERED</text><text fill="#eeeeee" stroke="none" font-family="Arial" font-size="24px" font-style="normal" font-weight="normal" text-decoration="none" x="200" y="60">UNREGISTERED</text><text fill="#eeeeee" stroke="none" font-family="Arial" font-size="24px" font-style="normal" font-weight="normal" text-decoration="none" x="200" y="90">UNREGISTERED</text><text fill="#eeeeee" stroke="none" font-family="Arial" font-size="24px" font-style="normal" font-weight="normal" text-decoration="none" x="200" y="120">UNREGISTERED</text><text fill="#eeeeee" stroke="none" font-family="Arial" font-size="24px" font-style="normal" font-weight="normal" text-decoration="none" x="200" y="150">UNREGISTERED</text><text fill="#eeeeee" stroke="none" font-family="Arial" font-size="24px" font-style="normal" font-weight="normal" text-decoration="none" x="200" y="180">UNREGISTERED</text><text fill="#eeeeee" stroke="none" font-family="Arial" font-size="24px" font-style="normal" font-weight="normal" text-decoration="none" x="200" y="210">UNREGISTERED</text><text fill="#eeeeee" stroke="none" font-family="Arial" font-size="24px" font-style="normal" font-weight="normal" text-decoration="none" x="200" y="240">UNREGISTERED</text><text fill="#eeeeee" stroke="none" font-family="Arial" font-size="24px" font-style="normal" font-weight="normal" text-decoration="none" x="200" y="270">UNREGISTERED</text><text fill="#eeeeee" stroke="none" font-family="Arial" font-size="24px" font-style="normal" font-weight="normal" text-decoration="none" x="200" y="300">UNREGISTERED</text><text fill="#eeeeee" stroke="none" font-family="Arial" font-size="24px" font-style="normal" font-weight="normal" text-decoration="none" x="200" y="330">UNREGISTERED</text><text fill="#eeeeee" stroke="none" font-family="Arial" font-size="24px" font-style="normal" font-weight="normal" text-decoration="none" x="200" y="360">UNREGISTERED</text><text fill="#eeeeee" stroke="none" font-family="Arial" font-size="24px" font-style="normal" font-weight="normal" text-decoration="none" x="200" y="390">UNREGISTERED</text><text fill="#eeeeee" stroke="none" font-family="Arial" font-size="24px" font-style="normal" font-weight="normal" text-decoration="none" x="200" y="420">UNREGISTERED</text><text fill="#eeeeee" stroke="none" font-family="Arial" font-size="24px" font-style="normal" font-weight="normal" text-decoration="none" x="200" y="450">UNREGISTERED</text><text fill="#eeeeee" stroke="none" font-family="Arial" font-size="24px" font-style="normal" font-weight="normal" text-decoration="none" x="200" y="480">UNREGISTERED</text><text fill="#eeeeee" stroke="none" font-family="Arial" font-size="24px" font-style="normal" font-weight="normal" text-decoration="none" x="200" y="510">UNREGISTERED</text><text fill="#eeeeee" stroke="none" font-family="Arial" font-size="24px" font-style="normal" font-weight="normal" text-decoration="none" x="400" y="0">UNREGISTERED</text><text fill="#eeeeee" stroke="none" font-family="Arial" font-size="24px" font-style="normal" font-weight="normal" text-decoration="none" x="400" y="30">UNREGISTERED</text><text fill="#eeeeee" stroke="none" font-family="Arial" font-size="24px" font-style="normal" font-weight="normal" text-decoration="none" x="400" y="60">UNREGISTERED</text><text fill="#eeeeee" stroke="none" font-family="Arial" font-size="24px" font-style="normal" font-weight="normal" text-decoration="none" x="400" y="90">UNREGISTERED</text><text fill="#eeeeee" stroke="none" font-family="Arial" font-size="24px" font-style="normal" font-weight="normal" text-decoration="none" x="400" y="120">UNREGISTERED</text><text fill="#eeeeee" stroke="none" font-family="Arial" font-size="24px" font-style="normal" font-weight="normal" text-decoration="none" x="400" y="150">UNREGISTERED</text><text fill="#eeeeee" stroke="none" font-family="Arial" font-size="24px" font-style="normal" font-weight="normal" text-decoration="none" x="400" y="180">UNREGISTERED</text><text fill="#eeeeee" stroke="none" font-family="Arial" font-size="24px" font-style="normal" font-weight="normal" text-decoration="none" x="400" y="210">UNREGISTERED</text><text fill="#eeeeee" stroke="none" font-family="Arial" font-size="24px" font-style="normal" font-weight="normal" text-decoration="none" x="400" y="240">UNREGISTERED</text><text fill="#eeeeee" stroke="none" font-family="Arial" font-size="24px" font-style="normal" font-weight="normal" text-decoration="none" x="400" y="270">UNREGISTERED</text><text fill="#eeeeee" stroke="none" font-family="Arial" font-size="24px" font-style="normal" font-weight="normal" text-decoration="none" x="400" y="300">UNREGISTERED</text><text fill="#eeeeee" stroke="none" font-family="Arial" font-size="24px" font-style="normal" font-weight="normal" text-decoration="none" x="400" y="330">UNREGISTERED</text><text fill="#eeeeee" stroke="none" font-family="Arial" font-size="24px" font-style="normal" font-weight="normal" text-decoration="none" x="400" y="360">UNREGISTERED</text><text fill="#eeeeee" stroke="none" font-family="Arial" font-size="24px" font-style="normal" font-weight="normal" text-decoration="none" x="400" y="390">UNREGISTERED</text><text fill="#eeeeee" stroke="none" font-family="Arial" font-size="24px" font-style="normal" font-weight="normal" text-decoration="none" x="400" y="420">UNREGISTERED</text><text fill="#eeeeee" stroke="none" font-family="Arial" font-size="24px" font-style="normal" font-weight="normal" text-decoration="none" x="400" y="450">UNREGISTERED</text><text fill="#eeeeee" stroke="none" font-family="Arial" font-size="24px" font-style="normal" font-weight="normal" text-decoration="none" x="400" y="480">UNREGISTERED</text><text fill="#eeeeee" stroke="none" font-family="Arial" font-size="24px" font-style="normal" font-weight="normal" text-decoration="none" x="400" y="510">UNREGISTERED</text><text fill="#eeeeee" stroke="none" font-family="Arial" font-size="24px" font-style="normal" font-weight="normal" text-decoration="none" x="600" y="0">UNREGISTERED</text><text fill="#eeeeee" stroke="none" font-family="Arial" font-size="24px" font-style="normal" font-weight="normal" text-decoration="none" x="600" y="30">UNREGISTERED</text><text fill="#eeeeee" stroke="none" font-family="Arial" font-size="24px" font-style="normal" font-weight="normal" text-decoration="none" x="600" y="60">UNREGISTERED</text><text fill="#eeeeee" stroke="none" font-family="Arial" font-size="24px" font-style="normal" font-weight="normal" text-decoration="none" x="600" y="90">UNREGISTERED</text><text fill="#eeeeee" stroke="none" font-family="Arial" font-size="24px" font-style="normal" font-weight="normal" text-decoration="none" x="600" y="120">UNREGISTERED</text><text fill="#eeeeee" stroke="none" font-family="Arial" font-size="24px" font-style="normal" font-weight="normal" text-decoration="none" x="600" y="150">UNREGISTERED</text><text fill="#eeeeee" stroke="none" font-family="Arial" font-size="24px" font-style="normal" font-weight="normal" text-decoration="none" x="600" y="180">UNREGISTERED</text><text fill="#eeeeee" stroke="none" font-family="Arial" font-size="24px" font-style="normal" font-weight="normal" text-decoration="none" x="600" y="210">UNREGISTERED</text><text fill="#eeeeee" stroke="none" font-family="Arial" font-size="24px" font-style="normal" font-weight="normal" text-decoration="none" x="600" y="240">UNREGISTERED</text><text fill="#eeeeee" stroke="none" font-family="Arial" font-size="24px" font-style="normal" font-weight="normal" text-decoration="none" x="600" y="270">UNREGISTERED</text><text fill="#eeeeee" stroke="none" font-family="Arial" font-size="24px" font-style="normal" font-weight="normal" text-decoration="none" x="600" y="300">UNREGISTERED</text><text fill="#eeeeee" stroke="none" font-family="Arial" font-size="24px" font-style="normal" font-weight="normal" text-decoration="none" x="600" y="330">UNREGISTERED</text><text fill="#eeeeee" stroke="none" font-family="Arial" font-size="24px" font-style="normal" font-weight="normal" text-decoration="none" x="600" y="360">UNREGISTERED</text><text fill="#eeeeee" stroke="none" font-family="Arial" font-size="24px" font-style="normal" font-weight="normal" text-decoration="none" x="600" y="390">UNREGISTERED</text><text fill="#eeeeee" stroke="none" font-family="Arial" font-size="24px" font-style="normal" font-weight="normal" text-decoration="none" x="600" y="420">UNREGISTERED</text><text fill="#eeeeee" stroke="none" font-family="Arial" font-size="24px" font-style="normal" font-weight="normal" text-decoration="none" x="600" y="450">UNREGISTERED</text><text fill="#eeeeee" stroke="none" font-family="Arial" font-size="24px" font-style="normal" font-weight="normal" text-decoration="none" x="600" y="480">UNREGISTERED</text><text fill="#eeeeee" stroke="none" font-family="Arial" font-size="24px" font-style="normal" font-weight="normal" text-decoration="none" x="600" y="510">UNREGISTERED</text><text fill="#eeeeee" stroke="none" font-family="Arial" font-size="24px" font-style="normal" font-weight="normal" text-decoration="none" x="800" y="0">UNREGISTERED</text><text fill="#eeeeee" stroke="none" font-family="Arial" font-size="24px" font-style="normal" font-weight="normal" text-decoration="none" x="800" y="30">UNREGISTERED</text><text fill="#eeeeee" stroke="none" font-family="Arial" font-size="24px" font-style="normal" font-weight="normal" text-decoration="none" x="800" y="60">UNREGISTERED</text><text fill="#eeeeee" stroke="none" font-family="Arial" font-size="24px" font-style="normal" font-weight="normal" text-decoration="none" x="800" y="90">UNREGISTERED</text><text fill="#eeeeee" stroke="none" font-family="Arial" font-size="24px" font-style="normal" font-weight="normal" text-decoration="none" x="800" y="120">UNREGISTERED</text><text fill="#eeeeee" stroke="none" font-family="Arial" font-size="24px" font-style="normal" font-weight="normal" text-decoration="none" x="800" y="150">UNREGISTERED</text><text fill="#eeeeee" stroke="none" font-family="Arial" font-size="24px" font-style="normal" font-weight="normal" text-decoration="none" x="800" y="180">UNREGISTERED</text><text fill="#eeeeee" stroke="none" font-family="Arial" font-size="24px" font-style="normal" font-weight="normal" text-decoration="none" x="800" y="210">UNREGISTERED</text><text fill="#eeeeee" stroke="none" font-family="Arial" font-size="24px" font-style="normal" font-weight="normal" text-decoration="none" x="800" y="240">UNREGISTERED</text><text fill="#eeeeee" stroke="none" font-family="Arial" font-size="24px" font-style="normal" font-weight="normal" text-decoration="none" x="800" y="270">UNREGISTERED</text><text fill="#eeeeee" stroke="none" font-family="Arial" font-size="24px" font-style="normal" font-weight="normal" text-decoration="none" x="800" y="300">UNREGISTERED</text><text fill="#eeeeee" stroke="none" font-family="Arial" font-size="24px" font-style="normal" font-weight="normal" text-decoration="none" x="800" y="330">UNREGISTERED</text><text fill="#eeeeee" stroke="none" font-family="Arial" font-size="24px" font-style="normal" font-weight="normal" text-decoration="none" x="800" y="360">UNREGISTERED</text><text fill="#eeeeee" stroke="none" font-family="Arial" font-size="24px" font-style="normal" font-weight="normal" text-decoration="none" x="800" y="390">UNREGISTERED</text><text fill="#eeeeee" stroke="none" font-family="Arial" font-size="24px" font-style="normal" font-weight="normal" text-decoration="none" x="800" y="420">UNREGISTERED</text><text fill="#eeeeee" stroke="none" font-family="Arial" font-size="24px" font-style="normal" font-weight="normal" text-decoration="none" x="800" y="450">UNREGISTERED</text><text fill="#eeeeee" stroke="none" font-family="Arial" font-size="24px" font-style="normal" font-weight="normal" text-decoration="none" x="800" y="480">UNREGISTERED</text><text fill="#eeeeee" stroke="none" font-family="Arial" font-size="24px" font-style="normal" font-weight="normal" text-decoration="none" x="800" y="510">UNREGISTERED</text><g transform="translate(-126,-54) scale(1,1)"><path fill="none" stroke="#000000" d="M 728 256 L 851.814453125 256 L 851.814453125 327 L 728 327 L 728 256" stroke-miterlimit="10"/></g><g transform="translate(-126,-54) scale(1,1)"><path fill="#ffffff" stroke="none" d="M 728 256 L 728 278 L 834.314453125 278 L 845.314453125 267 L 845.314453125 256 L 728 256"/></g><g transform="translate(-126,-54) scale(1,1)"><path fill="none" stroke="#000000" d="M 728 256 L 728 278 L 834.314453125 278 L 845.314453125 267 L 845.314453125 256 L 728 256 L 728 256" stroke-miterlimit="10"/></g><g transform="translate(-126,-54) scale(1,1)"><g><path fill="none" stroke="none"/><text fill="#000000" stroke="none" font-family="Arial" font-size="13px" font-style="normal" font-weight="normal" text-decoration="none" x="768.6181640625" y="271.5">Simulation</text></g></g><g transform="translate(-126,-54) scale(1,1)"><g><path fill="none" stroke="none"/><text fill="#000000" stroke="none" font-family="Arial" font-size="13px" font-style="normal" font-weight="bold" text-decoration="none" x="731.543212890625" y="271.5">class</text></g></g><g transform="translate(-126,-54) scale(1,1)"><path fill="none" stroke="#000000" d="M 728 264 L 846.025390625 264 L 846.025390625 327 L 728 327 L 728 264" stroke-miterlimit="10"/></g><g transform="translate(-126,-54) scale(1,1)"><path fill="#ffffff" stroke="none" d="M 728 264 L 728 286 L 828.525390625 286 L 839.525390625 275 L 839.525390625 264 L 728 264"/></g><g transform="translate(-126,-54) scale(1,1)"><path fill="none" stroke="#000000" d="M 728 264 L 728 286 L 828.525390625 286 L 839.525390625 275 L 839.525390625 264 L 728 264 L 728 264" stroke-miterlimit="10"/></g><g transform="translate(-126,-54) scale(1,1)"><g><path fill="none" stroke="none"/><text fill="#000000" stroke="none" font-family="Arial" font-size="13px" font-style="normal" font-weight="normal" text-decoration="none" x="768.6181640625" y="279.5">Simulator</text></g></g><g transform="translate(-126,-54) scale(1,1)"><g><path fill="none" stroke="none"/><text fill="#000000" stroke="none" font-family="Arial" font-size="13px" font-style="normal" font-weight="bold" text-decoration="none" x="731.543212890625" y="279.5">class</text></g></g><g transform="translate(-126,-54) scale(1,1)"><rect fill="#C0C0C0" stroke="none" x="545" y="463" width="302" height="128" opacity="0.2"/></g><g transform="translate(-126,-54) scale(1,1)"><rect fill="#ffffff" stroke="none" x="538" y="456" width="302" height="128"/></g><g transform="translate(-126,-54) scale(1,1)"><path fill="none" stroke="#000000" d="M 538 456 L 840 456 L 840 584 L 538 584 L 538 456 Z Z" stroke-miterlimit="10"/></g><g transform="translate(-126,-54) scale(1,1)"><rect fill="#ffffff" stroke="none" x="528" y="463" width="20" height="10"/></g><g transform="translate(-126,-54) scale(1,1)"><path fill="none" stroke="#000000" d="M 528 463 L 548 463 L 548 473 L 528 473 L 528 463 Z Z" stroke-miterlimit="10"/></g><g transform="translate(-126,-54) scale(1,1)"><rect fill="#ffffff" stroke="none" x="528" y="483" width="20" height="10"/></g><g transform="translate(-126,-54) scale(1,1)"><path fill="none" stroke="#000000" d="M 528 483 L 548 483 L 548 493 L 528 493 L 528 483 Z Z" stroke-miterlimit="10"/></g><g transform="translate(-126,-54) scale(1,1)"><g><path fill="none" stroke="none"/><text fill="#000000" stroke="none" font-family="Arial" font-size="13px" font-style="normal" font-weight="bold" text-decoration="none" x="651.746826171875" y="473.5">InputProvider</text></g></g><g transform="translate(-126,-54) scale(1,1)"><rect fill="#C0C0C0" stroke="none" x="505" y="223" width="566" height="152" opacity="0.2"/></g><g transform="translate(-126,-54) scale(1,1)"><rect fill="#ffffff" stroke="none" x="498" y="216" width="566" height="152"/></g><g transform="translate(-126,-54) scale(1,1)"><path fill="none" stroke="#000000" d="M 498 216 L 1064 216 L 1064 368 L 498 368 L 498 216 Z Z" stroke-miterlimit="10"/></g><g transform="translate(-126,-54) scale(1,1)"><rect fill="#ffffff" stroke="none" x="488" y="223" width="20" height="10"/></g><g transform="translate(-126,-54) scale(1,1)"><path fill="none" stroke="#000000" d="M 488 223 L 508 223 L 508 233 L 488 233 L 488 223 Z Z" stroke-miterlimit="10"/></g><g transform="translate(-126,-54) scale(1,1)"><rect fill="#ffffff" stroke="none" x="488" y="243" width="20" height="10"/></g><g transform="translate(-126,-54) scale(1,1)"><path fill="none" stroke="#000000" d="M 488 243 L 508 243 L 508 253 L 488 253 L 488 243 Z Z" stroke-miterlimit="10"/></g><g transform="translate(-126,-54) scale(1,1)"><g><path fill="none" stroke="none"/><text fill="#000000" stroke="none" font-family="Arial" font-size="13px" font-style="normal" font-weight="bold" text-decoration="none" x="766.85546875" y="233.5">Metier</text></g></g><g transform="translate(-126,-54) scale(1,1)"><rect fill="#C0C0C0" stroke="none" x="657" y="71" width="98.44091796875" height="72" opacity="0.2"/></g><g transform="translate(-126,-54) scale(1,1)"><rect fill="#ffffff" stroke="none" x="650" y="64" width="98.44091796875" height="72"/></g><g transform="translate(-126,-54) scale(1,1)"><path fill="none" stroke="#000000" d="M 650 64 L 748.44091796875 64 L 748.44091796875 136 L 650 136 L 650 64 Z Z" stroke-miterlimit="10"/></g><g transform="translate(-126,-54) scale(1,1)"><rect fill="#ffffff" stroke="none" x="640" y="71" width="20" height="10"/></g><g transform="translate(-126,-54) scale(1,1)"><path fill="none" stroke="#000000" d="M 640 71 L 660 71 L 660 81 L 640 81 L 640 71 Z Z" stroke-miterlimit="10"/></g><g transform="translate(-126,-54) scale(1,1)"><rect fill="#ffffff" stroke="none" x="640" y="91" width="20" height="10"/></g><g transform="translate(-126,-54) scale(1,1)"><path fill="none" stroke="#000000" d="M 640 91 L 660 91 L 660 101 L 640 101 L 640 91 Z Z" stroke-miterlimit="10"/></g><g transform="translate(-126,-54) scale(1,1)"><g><path fill="none" stroke="none"/><text fill="#000000" stroke="none" font-family="Arial" font-size="13px" font-style="normal" font-weight="bold" text-decoration="none" x="665.944091796875" y="81.5">AppConsole</text></g></g><g transform="translate(-126,-54) scale(1,1)"><rect fill="#C0C0C0" stroke="none" x="153" y="255" width="150" height="112" opacity="0.2"/></g><g transform="translate(-126,-54) scale(1,1)"><rect fill="#ffffff" stroke="none" x="146" y="248" width="150" height="112"/></g><g transform="translate(-126,-54) scale(1,1)"><path fill="none" stroke="#000000" d="M 146 248 L 296 248 L 296 360 L 146 360 L 146 248 Z Z" stroke-miterlimit="10"/></g><g transform="translate(-126,-54) scale(1,1)"><rect fill="#ffffff" stroke="none" x="136" y="255" width="20" height="10"/></g><g transform="translate(-126,-54) scale(1,1)"><path fill="none" stroke="#000000" d="M 136 255 L 156 255 L 156 265 L 136 265 L 136 255 Z Z" stroke-miterlimit="10"/></g><g transform="translate(-126,-54) scale(1,1)"><rect fill="#ffffff" stroke="none" x="136" y="275" width="20" height="10"/></g><g transform="translate(-126,-54) scale(1,1)"><path fill="none" stroke="#000000" d="M 136 275 L 156 275 L 156 285 L 136 285 L 136 275 Z Z" stroke-miterlimit="10"/></g><g transform="translate(-126,-54) scale(1,1)"><g><path fill="none" stroke="none"/><text fill="#000000" stroke="none" font-family="Arial" font-size="13px" font-style="normal" font-weight="bold" text-decoration="none" x="191.67822265625" y="265.5">Executable</text></g></g><g transform="translate(-126,-54) scale(1,1)"><rect fill="#C0C0C0" stroke="none" x="575" y="495" width="248" height="32" opacity="0.2"/></g><g transform="translate(-126,-54) scale(1,1)"><rect fill="#ffffff" stroke="none" x="568" y="488" width="248" height="32"/></g><g transform="translate(-126,-54) scale(1,1)"><path fill="none" stroke="#000000" d="M 568 488 L 816 488 L 816 520 L 568 520 L 568 488 Z Z" stroke-miterlimit="10"/></g><g transform="translate(-126,-54) scale(1,1)"><g><path fill="none" stroke="none"/><text fill="#000000" stroke="none" font-family="Arial" font-size="13px" font-style="normal" font-weight="bold" text-decoration="none" x="611.8291015625" y="505.5">FileConfigurationProvider</text></g></g><g transform="translate(-126,-54) scale(1,1)"><rect fill="#C0C0C0" stroke="none" x="527" y="287" width="144.12451171875" height="40" opacity="0.2"/></g><g transform="translate(-126,-54) scale(1,1)"><rect fill="#ffffff" stroke="none" x="520" y="280" width="144.12451171875" height="40"/></g><g transform="translate(-126,-54) scale(1,1)"><path fill="none" stroke="#000000" d="M 520 280 L 664.12451171875 280 L 664.12451171875 320 L 520 320 L 520 280 Z Z" stroke-miterlimit="10"/></g><g transform="translate(-126,-54) scale(1,1)"><g><path fill="none" stroke="none"/><text fill="#000000" stroke="none" font-family="Arial" font-size="13px" font-style="normal" font-weight="bold" text-decoration="none" x="528.5" y="297.5">ControllerMetierImpl</text></g></g><g transform="translate(-126,-54) scale(1,1)"><path fill="#C0C0C0" stroke="none" d="M 740.85546875 402.5 C 740.85546875 396.1487248 746.00419355 391 752.35546875 391 C 758.70674395 391 763.85546875 396.1487248 763.85546875 402.5 C 763.85546875 408.8512752 758.70674395 414 752.35546875 414 C 746.00419355 414 740.85546875 408.8512752 740.85546875 402.5 Z" opacity="0.2"/></g><g transform="translate(-126,-54) scale(1,1)"><path fill="none" stroke="#000000" d="M 735.8 388.1 A 11.5 11.5 0 0 1 754.2 401.9" stroke-miterlimit="10"/></g><g transform="translate(-126,-54) scale(1,1)"><path fill="#ffffff" stroke="none" d="M 736.85546875 395.5 C 736.85546875 390.8055792 740.66104795 387 745.35546875 387 C 750.04988955 387 753.85546875 390.8055792 753.85546875 395.5 C 753.85546875 400.1944208 750.04988955 404 745.35546875 404 C 740.66104795 404 736.85546875 400.1944208 736.85546875 395.5 Z"/></g><g transform="translate(-126,-54) scale(1,1)"><path fill="none" stroke="#000000" d="M 736.85546875 395.5 C 736.85546875 390.8055792 740.66104795 387 745.35546875 387 C 750.04988955 387 753.85546875 390.8055792 753.85546875 395.5 C 753.85546875 400.1944208 750.04988955 404 745.35546875 404 C 740.66104795 404 736.85546875 400.1944208 736.85546875 395.5 Z" stroke-miterlimit="10"/></g><g transform="translate(-126,-54) scale(1,1)"><g><path fill="none" stroke="none"/><text fill="#000000" stroke="none" font-family="Arial" font-size="13px" font-style="normal" font-weight="bold" text-decoration="none" x="660.5" y="424.5">InputConfigurationProvider</text></g></g><g transform="translate(-126,-54) scale(1,1)"><path fill="none" stroke="#000000" d="M 719 455 L 740.578947368421 407" stroke-miterlimit="10"/></g><g transform="translate(-126,-54) scale(1,1)"><path fill="none" stroke="#000000" d="M 765 353 L 753.25 384" stroke-miterlimit="10"/></g><g transform="translate(-126,-54) scale(1,1)"><rect fill="#C0C0C0" stroke="none" x="575" y="543" width="248" height="24" opacity="0.2"/></g><g transform="translate(-126,-54) scale(1,1)"><rect fill="#ffffff" stroke="none" x="568" y="536" width="248" height="24"/></g><g transform="translate(-126,-54) scale(1,1)"><path fill="none" stroke="#000000" d="M 568 536 L 816 536 L 816 560 L 568 560 L 568 536 Z Z" stroke-miterlimit="10"/></g><g transform="translate(-126,-54) scale(1,1)"><g><path fill="none" stroke="none"/><text fill="#000000" stroke="none" font-family="Arial" font-size="13px" font-style="normal" font-weight="bold" text-decoration="none" x="584.75" y="553.5">AppConsoleConfigurationProvider</text></g></g><g transform="translate(-126,-54) scale(1,1)"><path fill="#C0C0C0" stroke="none" d="M 714.200439453125 178.5 C 714.200439453125 172.1487248 719.349164253125 167 725.700439453125 167 C 732.051714653125 167 737.200439453125 172.1487248 737.200439453125 178.5 C 737.200439453125 184.8512752 732.051714653125 190 725.700439453125 190 C 719.349164253125 190 714.200439453125 184.8512752 714.200439453125 178.5 Z" opacity="0.2"/></g><g transform="translate(-126,-54) scale(1,1)"><path fill="none" stroke="#000000" d="M 708.066542639668 176.79451679352698 A 11.5 11.5 0 0 1 727.933457360332 165.20548320647302" stroke-miterlimit="10"/></g><g transform="translate(-126,-54) scale(1,1)"><path fill="#ffffff" stroke="none" d="M 710.200439453125 171.5 C 710.200439453125 166.8055792 714.006018653125 163 718.700439453125 163 C 723.394860253125 163 727.200439453125 166.8055792 727.200439453125 171.5 C 727.200439453125 176.1944208 723.394860253125 180 718.700439453125 180 C 714.006018653125 180 710.200439453125 176.1944208 710.200439453125 171.5 Z"/></g><g transform="translate(-126,-54) scale(1,1)"><path fill="none" stroke="#000000" d="M 710.200439453125 171.5 C 710.200439453125 166.8055792 714.006018653125 163 718.700439453125 163 C 723.394860253125 163 727.200439453125 166.8055792 727.200439453125 171.5 C 727.200439453125 176.1944208 723.394860253125 180 718.700439453125 180 C 714.006018653125 180 710.200439453125 176.1944208 710.200439453125 171.5 Z" stroke-miterlimit="10"/></g><g transform="translate(-126,-54) scale(1,1)"><g><path fill="none" stroke="none"/><text fill="#000000" stroke="none" font-family="Arial" font-size="13px" font-style="normal" font-weight="bold" text-decoration="none" x="668.5" y="200.5">ControllerMetier</text></g></g><g transform="translate(-126,-54) scale(1,1)"><path fill="none" stroke="#000000" d="M 735 215 L 722.1052631578947 183" stroke-miterlimit="10"/></g><g transform="translate(-126,-54) scale(1,1)"><path fill="none" stroke="#000000" d="M 705 137 L 711.5833333333334 160" stroke-miterlimit="10"/></g><g transform="translate(-126,-54) scale(1,1)"><rect fill="#C0C0C0" stroke="none" x="691.55908203125" y="335" width="172.22998046875" height="24" opacity="0.2"/></g><g transform="translate(-126,-54) scale(1,1)"><rect fill="#ffffff" stroke="none" x="684.55908203125" y="328" width="172.22998046875" height="24"/></g><g transform="translate(-126,-54) scale(1,1)"><path fill="none" stroke="#000000" d="M 684.55908203125 328 L 856.7890625 328 L 856.7890625 352 L 684.55908203125 352 L 684.55908203125 328 Z Z" stroke-miterlimit="10"/></g><g transform="translate(-126,-54) scale(1,1)"><g><path fill="none" stroke="none"/><text fill="#000000" stroke="none" font-family="Arial" font-size="13px" font-style="normal" font-weight="bold" text-decoration="none" x="689.05908203125" y="345.5">InitialConfigurationReader</text></g></g><g transform="translate(-126,-54) scale(1,1)"><rect fill="#C0C0C0" stroke="none" x="691.55908203125" y="255" width="149.87548828125" height="24" opacity="0.2"/></g><g transform="translate(-126,-54) scale(1,1)"><rect fill="#ffffff" stroke="none" x="684.55908203125" y="248" width="149.87548828125" height="24"/></g><g transform="translate(-126,-54) scale(1,1)"><path fill="none" stroke="#000000" d="M 684.55908203125 248 L 834.4345703125 248 L 834.4345703125 272 L 684.55908203125 272 L 684.55908203125 248 Z Z" stroke-miterlimit="10"/></g><g transform="translate(-126,-54) scale(1,1)"><g><path fill="none" stroke="none"/><text fill="#000000" stroke="none" font-family="Arial" font-size="13px" font-style="normal" font-weight="bold" text-decoration="none" x="726.273193359375" y="265.5">Simulation</text></g></g><g transform="translate(-126,-54) scale(1,1)"><path fill="none" stroke="#000000" d="M 297 269 L 639 123" stroke-miterlimit="10" stroke-dasharray="3"/></g><g transform="translate(-126,-54) scale(1,1)"><path fill="none" stroke="#000000" d="M 631.3061266162682 130.86157187559226 L 639 123 L 628.0006391727558 123.1185807407893" stroke-miterlimit="10"/></g><g transform="translate(-126,-54) scale(1,1)"><g><path fill="none" stroke="none"/><text fill="#000000" stroke="none" font-family="Arial" font-size="13px" font-style="normal" font-weight="normal" text-decoration="none" x="387.5" y="186.5">+create &amp; inject Controller</text></g></g><g transform="translate(-126,-54) scale(1,1)"><path fill="none" stroke="#000000" d="M 297 302 L 487 298" stroke-miterlimit="10" stroke-dasharray="3"/></g><g transform="translate(-126,-54) scale(1,1)"><path fill="none" stroke="#000000" d="M 476.92817830420927 302.422488861286 L 487 298 L 476.7509747164673 294.00531844354185" stroke-miterlimit="10"/></g><g transform="translate(-126,-54) scale(1,1)"><g><path fill="none" stroke="none"/><text fill="#000000" stroke="none" font-family="Arial" font-size="13px" font-style="normal" font-weight="normal" text-decoration="none" x="305.5" y="289.5">+create &amp; inject InputProvider</text></g></g><g transform="translate(-126,-54) scale(1,1)"><path fill="none" stroke="#000000" d="M 297 341 L 543 455" stroke-miterlimit="10" stroke-dasharray="3"/></g><g transform="translate(-126,-54) scale(1,1)"><path fill="none" stroke="#000000" d="M 532.0093592118969 454.54633154519496 L 543 455 L 535.5492354099499 446.90765132834383" stroke-miterlimit="10"/></g><g transform="translate(-126,-54) scale(1,1)"><g><path fill="none" stroke="none"/><text fill="#000000" stroke="none" font-family="Arial" font-size="13px" font-style="normal" font-weight="normal" text-decoration="none" x="404.5" y="388.5">+create</text></g></g><g transform="translate(-126,-54) scale(1,1)"><rect fill="#C0C0C0" stroke="none" x="691.55908203125" y="295" width="199.6708984375" height="24" opacity="0.2"/></g><g transform="translate(-126,-54) scale(1,1)"><rect fill="#ffffff" stroke="none" x="684.55908203125" y="288" width="199.6708984375" height="24"/></g><g transform="translate(-126,-54) scale(1,1)"><path fill="none" stroke="#000000" d="M 684.55908203125 288 L 884.22998046875 288 L 884.22998046875 312 L 684.55908203125 312 L 684.55908203125 288 Z Z" stroke-miterlimit="10"/></g><g transform="translate(-126,-54) scale(1,1)"><g><path fill="none" stroke="none"/><text fill="#000000" stroke="none" font-family="Arial" font-size="13px" font-style="normal" font-weight="bold" text-decoration="none" x="689.05908203125" y="305.5">SimulationComponentsBuilder</text></g></g><g transform="translate(-126,-54) scale(1,1)"><rect fill="#C0C0C0" stroke="none" x="895" y="255" width="123.384765625" height="24" opacity="0.2"/></g><g transform="translate(-126,-54) scale(1,1)"><rect fill="#ffffff" stroke="none" x="888" y="248" width="123.384765625" height="24"/></g><g transform="translate(-126,-54) scale(1,1)"><path fill="none" stroke="#000000" d="M 888 248 L 1011.384765625 248 L 1011.384765625 272 L 888 272 L 888 248 Z Z" stroke-miterlimit="10"/></g><g transform="translate(-126,-54) scale(1,1)"><g><path fill="none" stroke="none"/><text fill="#000000" stroke="none" font-family="Arial" font-size="13px" font-style="normal" font-weight="bold" text-decoration="none" x="907.788330078125" y="265.5">Carte &amp; Items</text></g></g><g transform="translate(-126,-54) scale(1,1)"><rect fill="#C0C0C0" stroke="none" x="895" y="295" width="167.89453125" height="24" opacity="0.2"/></g><g transform="translate(-126,-54) scale(1,1)"><rect fill="#ffffff" stroke="none" x="888" y="288" width="167.89453125" height="24"/></g><g transform="translate(-126,-54) scale(1,1)"><path fill="none" stroke="#000000" d="M 888 288 L 1055.89453125 288 L 1055.89453125 312 L 888 312 L 888 288 Z Z" stroke-miterlimit="10"/></g><g transform="translate(-126,-54) scale(1,1)"><g><path fill="none" stroke="none"/><text fill="#000000" stroke="none" font-family="Arial" font-size="13px" font-style="normal" font-weight="bold" text-decoration="none" x="917.78271484375" y="305.5">Position &amp; Action</text></g></g></g></svg>