<svg version="1.1" xmlns="http://www.w3.org/2000/svg" xmlns:xlink="http://www.w3.org/1999/xlink" width="780" height="476"><defs/><g><text fill="#eeeeee" stroke="none" font-family="Arial" font-size="24px" font-style="normal" font-weight="normal" text-decoration="none" x="0" y="0">UNREGISTERED</text><text fill="#eeeeee" stroke="none" font-family="Arial" font-size="24px" font-style="normal" font-weight="normal" text-decoration="none" x="0" y="30">UNREGISTERED</text><text fill="#eeeeee" stroke="none" font-family="Arial" font-size="24px" font-style="normal" font-weight="normal" text-decoration="none" x="0" y="60">UNREGISTERED</text><text fill="#eeeeee" stroke="none" font-family="Arial" font-size="24px" font-style="normal" font-weight="normal" text-decoration="none" x="0" y="90">UNREGISTERED</text><text fill="#eeeeee" stroke="none" font-family="Arial" font-size="24px" font-style="normal" font-weight="normal" text-decoration="none" x="0" y="120">UNREGISTERED</text><text fill="#eeeeee" stroke="none" font-family="Arial" font-size="24px" font-style="normal" font-weight="normal" text-decoration="none" x="0" y="150">UNREGISTERED</text><text fill="#eeeeee" stroke="none" font-family="Arial" font-size="24px" font-style="normal" font-weight="normal" text-decoration="none" x="0" y="180">UNREGISTERED</text><text fill="#eeeeee" stroke="none" font-family="Arial" font-size="24px" font-style="normal" font-weight="normal" text-decoration="none" x="0" y="210">UNREGISTERED</text><text fill="#eeeeee" stroke="none" font-family="Arial" font-size="24px" font-style="normal" font-weight="normal" text-decoration="none" x="0" y="240">UNREGISTERED</text><text fill="#eeeeee" stroke="none" font-family="Arial" font-size="24px" font-style="normal" font-weight="normal" text-decoration="none" x="0" y="270">UNREGISTERED</text><text fill="#eeeeee" stroke="none" font-family="Arial" font-size="24px" font-style="normal" font-weight="normal" text-decoration="none" x="0" y="300">UNREGISTERED</text><text fill="#eeeeee" stroke="none" font-family="Arial" font-size="24px" font-style="normal" font-weight="normal" text-decoration="none" x="0" y="330">UNREGISTERED</text><text fill="#eeeeee" stroke="none" font-family="Arial" font-size="24px" font-style="normal" font-weight="normal" text-decoration="none" x="0" y="360">UNREGISTERED</text><text fill="#eeeeee" stroke="none" font-family="Arial" font-size="24px" font-style="normal" font-weight="normal" text-decoration="none" x="0" y="390">UNREGISTERED</text><text fill="#eeeeee" stroke="none" font-family="Arial" font-size="24px" font-style="normal" font-weight="normal" text-decoration="none" x="0" y="420">UNREGISTERED</text><text fill="#eeeeee" stroke="none" font-family="Arial" font-size="24px" font-style="normal" font-weight="normal" text-decoration="none" x="0" y="450">UNREGISTERED</text><text fill="#eeeeee" stroke="none" font-family="Arial" font-size="24px" font-style="normal" font-weight="normal" text-decoration="none" x="200" y="0">UNREGISTERED</text><text fill="#eeeeee" stroke="none" font-family="Arial" font-size="24px" font-style="normal" font-weight="normal" text-decoration="none" x="200" y="30">UNREGISTERED</text><text fill="#eeeeee" stroke="none" font-family="Arial" font-size="24px" font-style="normal" font-weight="normal" text-decoration="none" x="200" y="60">UNREGISTERED</text><text fill="#eeeeee" stroke="none" font-family="Arial" font-size="24px" font-style="normal" font-weight="normal" text-decoration="none" x="200" y="90">UNREGISTERED</text><text fill="#eeeeee" stroke="none" font-family="Arial" font-size="24px" font-style="normal" font-weight="normal" text-decoration="none" x="200" y="120">UNREGISTERED</text><text fill="#eeeeee" stroke="none" font-family="Arial" font-size="24px" font-style="normal" font-weight="normal" text-decoration="none" x="200" y="150">UNREGISTERED</text><text fill="#eeeeee" stroke="none" font-family="Arial" font-size="24px" font-style="normal" font-weight="normal" text-decoration="none" x="200" y="180">UNREGISTERED</text><text fill="#eeeeee" stroke="none" font-family="Arial" font-size="24px" font-style="normal" font-weight="normal" text-decoration="none" x="200" y="210">UNREGISTERED</text><text fill="#eeeeee" stroke="none" font-family="Arial" font-size="24px" font-style="normal" font-weight="normal" text-decoration="none" x="200" y="240">UNREGISTERED</text><text fill="#eeeeee" stroke="none" font-family="Arial" font-size="24px" font-style="normal" font-weight="normal" text-decoration="none" x="200" y="270">UNREGISTERED</text><text fill="#eeeeee" stroke="none" font-family="Arial" font-size="24px" font-style="normal" font-weight="normal" text-decoration="none" x="200" y="300">UNREGISTERED</text><text fill="#eeeeee" stroke="none" font-family="Arial" font-size="24px" font-style="normal" font-weight="normal" text-decoration="none" x="200" y="330">UNREGISTERED</text><text fill="#eeeeee" stroke="none" font-family="Arial" font-size="24px" font-style="normal" font-weight="normal" text-decoration="none" x="200" y="360">UNREGISTERED</text><text fill="#eeeeee" stroke="none" font-family="Arial" font-size="24px" font-style="normal" font-weight="normal" text-decoration="none" x="200" y="390">UNREGISTERED</text><text fill="#eeeeee" stroke="none" font-family="Arial" font-size="24px" font-style="normal" font-weight="normal" text-decoration="none" x="200" y="420">UNREGISTERED</text><text fill="#eeeeee" stroke="none" font-family="Arial" font-size="24px" font-style="normal" font-weight="normal" text-decoration="none" x="200" y="450">UNREGISTERED</text><text fill="#eeeeee" stroke="none" font-family="Arial" font-size="24px" font-style="normal" font-weight="normal" text-decoration="none" x="400" y="0">UNREGISTERED</text><text fill="#eeeeee" stroke="none" font-family="Arial" font-size="24px" font-style="normal" font-weight="normal" text-decoration="none" x="400" y="30">UNREGISTERED</text><text fill="#eeeeee" stroke="none" font-family="Arial" font-size="24px" font-style="normal" font-weight="normal" text-decoration="none" x="400" y="60">UNREGISTERED</text><text fill="#eeeeee" stroke="none" font-family="Arial" font-size="24px" font-style="normal" font-weight="normal" text-decoration="none" x="400" y="90">UNREGISTERED</text><text fill="#eeeeee" stroke="none" font-family="Arial" font-size="24px" font-style="normal" font-weight="normal" text-decoration="none" x="400" y="120">UNREGISTERED</text><text fill="#eeeeee" stroke="none" font-family="Arial" font-size="24px" font-style="normal" font-weight="normal" text-decoration="none" x="400" y="150">UNREGISTERED</text><text fill="#eeeeee" stroke="none" font-family="Arial" font-size="24px" font-style="normal" font-weight="normal" text-decoration="none" x="400" y="180">UNREGISTERED</text><text fill="#eeeeee" stroke="none" font-family="Arial" font-size="24px" font-style="normal" font-weight="normal" text-decoration="none" x="400" y="210">UNREGISTERED</text><text fill="#eeeeee" stroke="none" font-family="Arial" font-size="24px" font-style="normal" font-weight="normal" text-decoration="none" x="400" y="240">UNREGISTERED</text><text fill="#eeeeee" stroke="none" font-family="Arial" font-size="24px" font-style="normal" font-weight="normal" text-decoration="none" x="400" y="270">UNREGISTERED</text><text fill="#eeeeee" stroke="none" font-family="Arial" font-size="24px" font-style="normal" font-weight="normal" text-decoration="none" x="400" y="300">UNREGISTERED</text><text fill="#eeeeee" stroke="none" font-family="Arial" font-size="24px" font-style="normal" font-weight="normal" text-decoration="none" x="400" y="330">UNREGISTERED</text><text fill="#eeeeee" stroke="none" font-family="Arial" font-size="24px" font-style="normal" font-weight="normal" text-decoration="none" x="400" y="360">UNREGISTERED</text><text fill="#eeeeee" stroke="none" font-family="Arial" font-size="24px" font-style="normal" font-weight="normal" text-decoration="none" x="400" y="390">UNREGISTERED</text><text fill="#eeeeee" stroke="none" font-family="Arial" font-size="24px" font-style="normal" font-weight="normal" text-decoration="none" x="400" y="420">UNREGISTERED</text><text fill="#eeeeee" stroke="none" font-family="Arial" font-size="24px" font-style="normal" font-weight="normal" text-decoration="none" x="400" y="450">UNREGISTERED</text><text fill="#eeeeee" stroke="none" font-family="Arial" font-size="24px" font-style="normal" font-weight="normal" text-decoration="none" x="600" y="0">UNREGISTERED</text><text fill="#eeeeee" stroke="none" font-family="Arial" font-size="24px" font-style="normal" font-weight="normal" text-decoration="none" x="600" y="30">UNREGISTERED</text><text fill="#eeeeee" stroke="none" font-family="Arial" font-size="24px" font-style="normal" font-weight="normal" text-decoration="none" x="600" y="60">UNREGISTERED</text><text fill="#eeeeee" stroke="none" font-family="Arial" font-size="24px" font-style="normal" font-weight="normal" text-decoration="none" x="600" y="90">UNREGISTERED</text><text fill="#eeeeee" stroke="none" font-family="Arial" font-size="24px" font-style="normal" font-weight="normal" text-decoration="none" x="600" y="120">UNREGISTERED</text><text fill="#eeeeee" stroke="none" font-family="Arial" font-size="24px" font-style="normal" font-weight="normal" text-decoration="none" x="600" y="150">UNREGISTERED</text><text fill="#eeeeee" stroke="none" font-family="Arial" font-size="24px" font-style="normal" font-weight="normal" text-decoration="none" x="600" y="180">UNREGISTERED</text><text fill="#eeeeee" stroke="none" font-family="Arial" font-size="24px" font-style="normal" font-weight="normal" text-decoration="none" x="600" y="210">UNREGISTERED</text><text fill="#eeeeee" stroke="none" font-family="Arial" font-size="24px" font-style="normal" font-weight="normal" text-decoration="none" x="600" y="240">UNREGISTERED</text><text fill="#eeeeee" stroke="none" font-family="Arial" font-size="24px" font-style="normal" font-weight="normal" text-decoration="none" x="600" y="270">UNREGISTERED</text><text fill="#eeeeee" stroke="none" font-family="Arial" font-size="24px" font-style="normal" font-weight="normal" text-decoration="none" x="600" y="300">UNREGISTERED</text><text fill="#eeeeee" stroke="none" font-family="Arial" font-size="24px" font-style="normal" font-weight="normal" text-decoration="none" x="600" y="330">UNREGISTERED</text><text fill="#eeeeee" stroke="none" font-family="Arial" font-size="24px" font-style="normal" font-weight="normal" text-decoration="none" x="600" y="360">UNREGISTERED</text><text fill="#eeeeee" stroke="none" font-family="Arial" font-size="24px" font-style="normal" font-weight="normal" text-decoration="none" x="600" y="390">UNREGISTERED</text><text fill="#eeeeee" stroke="none" font-family="Arial" font-size="24px" font-style="normal" font-weight="normal" text-decoration="none" x="600" y="420">UNREGISTERED</text><text fill="#eeeeee" stroke="none" font-family="Arial" font-size="24px" font-style="normal" font-weight="normal" text-decoration="none" x="600" y="450">UNREGISTERED</text><g transform="translate(-110,-70) scale(1,1)"><rect fill="#C0C0C0" stroke="none" x="207" y="87" width="680" height="456" opacity="0.2"/></g><g transform="translate(-110,-70) scale(1,1)"><rect fill="#ffffff" stroke="none" x="200" y="80" width="680" height="456"/></g><g transform="translate(-110,-70) scale(1,1)"><path fill="none" stroke="#000000" d="M 200 80 L 880 80 L 880 536 L 200 536 L 200 80 Z Z" stroke-miterlimit="10"/></g><g transform="translate(-110,-70) scale(1,1)"><g><path fill="none" stroke="none"/><text fill="#000000" stroke="none" font-family="Arial" font-size="13px" font-style="normal" font-weight="bold" text-decoration="none" x="442.474609375" y="97.5">One execution of CarteExplorer</text></g></g><g transform="translate(-110,-70) scale(1,1)"><path fill="#ffffff" stroke="none" d="M 136.40935031960228 241.68 C 136.40935031960228 236.886167936 140.29519264454774 233 145.088623046875 233 C 149.88205344920226 233 153.76789577414772 236.886167936 153.76789577414772 241.68 C 153.76789577414772 246.47383206400002 149.88205344920226 250.36 145.088623046875 250.36 C 140.29519264454774 250.36 136.40935031960228 246.47383206400002 136.40935031960228 241.68 Z"/></g><g transform="translate(-110,-70) scale(1,1)"><path fill="none" stroke="#000000" d="M 136.40935031960228 241.68 C 136.40935031960228 236.886167936 140.29519264454774 233 145.088623046875 233 C 149.88205344920226 233 153.76789577414772 236.886167936 153.76789577414772 241.68 C 153.76789577414772 246.47383206400002 149.88205344920226 250.36 145.088623046875 250.36 C 140.29519264454774 250.36 136.40935031960228 246.47383206400002 136.40935031960228 241.68 Z" stroke-miterlimit="10"/></g><g transform="translate(-110,-70) scale(1,1)"><path fill="none" stroke="#000000" d="M 145.088623046875 250.36 L 145.088623046875 267.64" stroke-miterlimit="10"/></g><g transform="translate(-110,-70) scale(1,1)"><path fill="none" stroke="#000000" d="M 135.89880486505683 256.84 L 154.27844122869317 256.84" stroke-miterlimit="10"/></g><g transform="translate(-110,-70) scale(1,1)"><path fill="none" stroke="#000000" d="M 145.088623046875 267.64 L 132.32498668323865 285" stroke-miterlimit="10"/></g><g transform="translate(-110,-70) scale(1,1)"><path fill="none" stroke="#000000" d="M 145.088623046875 267.64 L 157.85225941051135 285" stroke-miterlimit="10"/></g><g transform="translate(-110,-70) scale(1,1)"><g><path fill="none" stroke="none"/><text fill="#000000" stroke="none" font-family="Arial" font-size="13px" font-style="normal" font-weight="bold" text-decoration="none" x="125.57275390625" y="303.5">Player</text></g></g><g transform="translate(-110,-70) scale(1,1)"><path fill="#C0C0C0" stroke="none" d="M 279 320 C 279 310.6111584 319.9659408 303 370.5 303 C 421.0340592 303 462 310.6111584 462 320 C 462 329.3888416 421.0340592 337 370.5 337 C 319.9659408 337 279 329.3888416 279 320 Z" opacity="0.2"/></g><g transform="translate(-110,-70) scale(1,1)"><path fill="#ffffff" stroke="none" d="M 272 313 C 272 303.6111584 312.9659408 296 363.5 296 C 414.0340592 296 455 303.6111584 455 313 C 455 322.3888416 414.0340592 330 363.5 330 C 312.9659408 330 272 322.3888416 272 313 Z"/></g><g transform="translate(-110,-70) scale(1,1)"><path fill="none" stroke="#000000" d="M 272 313 C 272 303.6111584 312.9659408 296 363.5 296 C 414.0340592 296 455 303.6111584 455 313 C 455 322.3888416 414.0340592 330 363.5 330 C 312.9659408 330 272 322.3888416 272 313 Z" stroke-miterlimit="10"/></g><g transform="translate(-110,-70) scale(1,1)"><g><path fill="none" stroke="none"/><text fill="#000000" stroke="none" font-family="Arial" font-size="13px" font-style="normal" font-weight="bold" text-decoration="none" x="303.194091796875" y="318">Run one simulation</text></g></g><g transform="translate(-110,-70) scale(1,1)"><path fill="#C0C0C0" stroke="none" d="M 255 424 C 255 414.6111584 304.4725296 407 365.5 407 C 426.5274704 407 476 414.6111584 476 424 C 476 433.3888416 426.5274704 441 365.5 441 C 304.4725296 441 255 433.3888416 255 424 Z" opacity="0.2"/></g><g transform="translate(-110,-70) scale(1,1)"><path fill="#ffffff" stroke="none" d="M 248 417 C 248 407.6111584 297.4725296 400 358.5 400 C 419.5274704 400 469 407.6111584 469 417 C 469 426.3888416 419.5274704 434 358.5 434 C 297.4725296 434 248 426.3888416 248 417 Z"/></g><g transform="translate(-110,-70) scale(1,1)"><path fill="none" stroke="#000000" d="M 248 417 C 248 407.6111584 297.4725296 400 358.5 400 C 419.5274704 400 469 407.6111584 469 417 C 469 426.3888416 419.5274704 434 358.5 434 C 297.4725296 434 248 426.3888416 248 417 Z" stroke-miterlimit="10"/></g><g transform="translate(-110,-70) scale(1,1)"><g><path fill="none" stroke="none"/><text fill="#000000" stroke="none" font-family="Arial" font-size="13px" font-style="normal" font-weight="bold" text-decoration="none" x="284.832275390625" y="422">Run multiple simulation</text></g></g><g transform="translate(-110,-70) scale(1,1)"><path fill="#C0C0C0" stroke="none" d="M 535 424 C 535 414.6111584 567.9070672 407 608.5 407 C 649.0929328 407 682 414.6111584 682 424 C 682 433.3888416 649.0929328 441 608.5 441 C 567.9070672 441 535 433.3888416 535 424 Z" opacity="0.2"/></g><g transform="translate(-110,-70) scale(1,1)"><path fill="#ffffff" stroke="none" d="M 528 417 C 528 407.6111584 560.9070672 400 601.5 400 C 642.0929328 400 675 407.6111584 675 417 C 675 426.3888416 642.0929328 434 601.5 434 C 560.9070672 434 528 426.3888416 528 417 Z"/></g><g transform="translate(-110,-70) scale(1,1)"><path fill="none" stroke="#000000" d="M 528 417 C 528 407.6111584 560.9070672 400 601.5 400 C 642.0929328 400 675 407.6111584 675 417 C 675 426.3888416 642.0929328 434 601.5 434 C 560.9070672 434 528 426.3888416 528 417 Z" stroke-miterlimit="10"/></g><g transform="translate(-110,-70) scale(1,1)"><g><path fill="none" stroke="none"/><text fill="#000000" stroke="none" font-family="Arial" font-size="13px" font-style="normal" font-weight="bold" text-decoration="none" x="553.83544921875" y="422">Run Simulation</text></g></g><g transform="translate(-110,-70) scale(1,1)"><path fill="#C0C0C0" stroke="none" d="M 599 296 C 599 286.6111584 637.2796496 279 684.5 279 C 731.7203504 279 770 286.6111584 770 296 C 770 305.3888416 731.7203504 313 684.5 313 C 637.2796496 313 599 305.3888416 599 296 Z" opacity="0.2"/></g><g transform="translate(-110,-70) scale(1,1)"><path fill="#ffffff" stroke="none" d="M 592 289 C 592 279.6111584 630.2796496 272 677.5 272 C 724.7203504 272 763 279.6111584 763 289 C 763 298.3888416 724.7203504 306 677.5 306 C 630.2796496 306 592 298.3888416 592 289 Z"/></g><g transform="translate(-110,-70) scale(1,1)"><path fill="none" stroke="#000000" d="M 592 289 C 592 279.6111584 630.2796496 272 677.5 272 C 724.7203504 272 763 279.6111584 763 289 C 763 298.3888416 724.7203504 306 677.5 306 C 630.2796496 306 592 298.3888416 592 289 Z" stroke-miterlimit="10"/></g><g transform="translate(-110,-70) scale(1,1)"><g><path fill="none" stroke="none"/><text fill="#000000" stroke="none" font-family="Arial" font-size="13px" font-style="normal" font-weight="bold" text-decoration="none" x="621.53271484375" y="294">BuildComponents</text></g></g><g transform="translate(-110,-70) scale(1,1)"><path fill="#C0C0C0" stroke="none" d="M 599 200 C 599 190.6111584 630.1162064 183 668.5 183 C 706.8837936 183 738 190.6111584 738 200 C 738 209.3888416 706.8837936 217 668.5 217 C 630.1162064 217 599 209.3888416 599 200 Z" opacity="0.2"/></g><g transform="translate(-110,-70) scale(1,1)"><path fill="#ffffff" stroke="none" d="M 592 193 C 592 183.6111584 623.1162064 176 661.5 176 C 699.8837936 176 731 183.6111584 731 193 C 731 202.3888416 699.8837936 210 661.5 210 C 623.1162064 210 592 202.3888416 592 193 Z"/></g><g transform="translate(-110,-70) scale(1,1)"><path fill="none" stroke="#000000" d="M 592 193 C 592 183.6111584 623.1162064 176 661.5 176 C 699.8837936 176 731 183.6111584 731 193 C 731 202.3888416 699.8837936 210 661.5 210 C 623.1162064 210 592 202.3888416 592 193 Z" stroke-miterlimit="10"/></g><g transform="translate(-110,-70) scale(1,1)"><g><path fill="none" stroke="none"/><text fill="#000000" stroke="none" font-family="Arial" font-size="13px" font-style="normal" font-weight="bold" text-decoration="none" x="627.917724609375" y="198">Read Input</text></g></g><g transform="translate(-110,-70) scale(1,1)"><path fill="#C0C0C0" stroke="none" d="M 263 144 C 263 134.6111584 310.6816688 127 369.5 127 C 428.3183312 127 476 134.6111584 476 144 C 476 153.3888416 428.3183312 161 369.5 161 C 310.6816688 161 263 153.3888416 263 144 Z" opacity="0.2"/></g><g transform="translate(-110,-70) scale(1,1)"><path fill="#ffffff" stroke="none" d="M 256 137 C 256 127.6111584 303.6816688 120 362.5 120 C 421.3183312 120 469 127.6111584 469 137 C 469 146.3888416 421.3183312 154 362.5 154 C 303.6816688 154 256 146.3888416 256 137 Z"/></g><g transform="translate(-110,-70) scale(1,1)"><path fill="none" stroke="#000000" d="M 256 137 C 256 127.6111584 303.6816688 120 362.5 120 C 421.3183312 120 469 127.6111584 469 137 C 469 146.3888416 421.3183312 154 362.5 154 C 303.6816688 154 256 146.3888416 256 137 Z" stroke-miterlimit="10"/></g><g transform="translate(-110,-70) scale(1,1)"><g><path fill="none" stroke="none"/><text fill="#000000" stroke="none" font-family="Arial" font-size="13px" font-style="normal" font-weight="bold" text-decoration="none" x="291.71728515625" y="142">Render Frame - Output</text></g></g><g transform="translate(-110,-70) scale(1,1)"><path fill="none" stroke="#000000" d="M 171 276 L 271 295" stroke-miterlimit="10"/></g><g transform="translate(-110,-70) scale(1,1)"><path fill="#C0C0C0" stroke="none" d="M 263 224 C 263 214.6111584 308.6669504 207 365 207 C 421.3330496 207 467 214.6111584 467 224 C 467 233.3888416 421.3330496 241 365 241 C 308.6669504 241 263 233.3888416 263 224 Z" opacity="0.2"/></g><g transform="translate(-110,-70) scale(1,1)"><path fill="#ffffff" stroke="none" d="M 256 217 C 256 207.6111584 301.6669504 200 358 200 C 414.3330496 200 460 207.6111584 460 217 C 460 226.3888416 414.3330496 234 358 234 C 301.6669504 234 256 226.3888416 256 217 Z"/></g><g transform="translate(-110,-70) scale(1,1)"><path fill="none" stroke="#000000" d="M 256 217 C 256 207.6111584 301.6669504 200 358 200 C 414.3330496 200 460 207.6111584 460 217 C 460 226.3888416 414.3330496 234 358 234 C 301.6669504 234 256 226.3888416 256 217 Z" stroke-miterlimit="10"/></g><g transform="translate(-110,-70) scale(1,1)"><g><path fill="none" stroke="none"/><text fill="#000000" stroke="none" font-family="Arial" font-size="13px" font-style="normal" font-weight="bold" text-decoration="none" x="290.4736328125" y="222">Provide Action - Input</text></g></g><g transform="translate(-110,-70) scale(1,1)"><path fill="none" stroke="#000000" d="M 404 331 L 560 399" stroke-miterlimit="10" stroke-dasharray="3"/></g><g transform="translate(-110,-70) scale(1,1)"><path fill="none" stroke="#000000" d="M 549.0018550446737 398.79799123377825 L 560 399 L 552.3659788900707 391.0802953531616" stroke-miterlimit="10"/></g><g transform="translate(-110,-70) scale(1,1)"><g><path fill="none" stroke="none"/><text fill="#000000" stroke="none" font-family="Arial" font-size="13px" font-style="normal" font-weight="normal" text-decoration="none" x="465.5" y="341.5">«include»</text></g></g><g transform="translate(-110,-70) scale(1,1)"><path fill="none" stroke="#000000" d="M 456 306 L 591 296" stroke-miterlimit="10" stroke-dasharray="3"/></g><g transform="translate(-110,-70) scale(1,1)"><path fill="none" stroke="#000000" d="M 581.1760562373071 300.9487502409645 L 591 296 L 580.5541278936199 292.55271760118904" stroke-miterlimit="10"/></g><g transform="translate(-110,-70) scale(1,1)"><g><path fill="none" stroke="none"/><text fill="#000000" stroke="none" font-family="Arial" font-size="13px" font-style="normal" font-weight="normal" text-decoration="none" x="492.5" y="275.5">«include»</text></g></g><g transform="translate(-110,-70) scale(1,1)"><path fill="none" stroke="#000000" d="M 408 295 L 616 211" stroke-miterlimit="10" stroke-dasharray="3"/></g><g transform="translate(-110,-70) scale(1,1)"><path fill="none" stroke="#000000" d="M 608.1530515513545 218.708787196719 L 616 211 L 605.0004338388175 210.90230524186546" stroke-miterlimit="10"/></g><g transform="translate(-110,-70) scale(1,1)"><g><path fill="none" stroke="none"/><text fill="#000000" stroke="none" font-family="Arial" font-size="13px" font-style="normal" font-weight="normal" text-decoration="none" x="472.5" y="229.5">«include»</text></g></g><g transform="translate(-110,-70) scale(1,1)"><path fill="none" stroke="#000000" d="M 171 264 L 287 235" stroke-miterlimit="10"/></g><g transform="translate(-110,-70) scale(1,1)"><path fill="none" stroke="#000000" d="M 359 235 L 362 295" stroke-miterlimit="10" stroke-dasharray="3"/></g><g transform="translate(-110,-70) scale(1,1)"><path fill="none" stroke="#000000" d="M 357.28823453146583 285.06021800191127 L 362 295 L 365.6967659402034 284.63979143147435" stroke-miterlimit="10"/></g><g transform="translate(-110,-70) scale(1,1)"><g><path fill="none" stroke="none"/><text fill="#000000" stroke="none" font-family="Arial" font-size="13px" font-style="normal" font-weight="normal" text-decoration="none" x="362.5" y="267.5">«extend»</text></g></g><g transform="translate(-110,-70) scale(1,1)"><path fill="none" stroke="#000000" d="M 171 255 L 333 155" stroke-miterlimit="10"/></g><g transform="translate(-110,-70) scale(1,1)"><path fill="none" stroke="#000000" d="M 359 399 L 362 331" stroke-miterlimit="10"/></g><g transform="translate(-110,-70) scale(1,1)"><path fill="#FFFFFF" stroke="none" d="M 369.51501897052754 351.67666534701885 L 362 331 L 352.69331059560363 350.9345311540075"/></g><g transform="translate(-110,-70) scale(1,1)"><path fill="none" stroke="#000000" d="M 369.51501897052754 351.67666534701885 L 362 331 L 352.69331059560363 350.9345311540075 L 369.51501897052754 351.67666534701885" stroke-miterlimit="10"/></g><g transform="translate(-110,-70) scale(1,1)"><path fill="#C0C0C0" stroke="none" d="M 599 368 C 599 358.6111584 653.6212544 351 721 351 C 788.3787456 351 843 358.6111584 843 368 C 843 377.3888416 788.3787456 385 721 385 C 653.6212544 385 599 377.3888416 599 368 Z" opacity="0.2"/></g><g transform="translate(-110,-70) scale(1,1)"><path fill="#ffffff" stroke="none" d="M 592 361 C 592 351.6111584 646.6212544 344 714 344 C 781.3787456 344 836 351.6111584 836 361 C 836 370.3888416 781.3787456 378 714 378 C 646.6212544 378 592 370.3888416 592 361 Z"/></g><g transform="translate(-110,-70) scale(1,1)"><path fill="none" stroke="#000000" d="M 592 361 C 592 351.6111584 646.6212544 344 714 344 C 781.3787456 344 836 351.6111584 836 361 C 836 370.3888416 781.3787456 378 714 378 C 646.6212544 378 592 370.3888416 592 361 Z" stroke-miterlimit="10"/></g><g transform="translate(-110,-70) scale(1,1)"><g><path fill="none" stroke="none"/><text fill="#000000" stroke="none" font-family="Arial" font-size="13px" font-style="normal" font-weight="bold" text-decoration="none" x="632.03271484375" y="366">BuildComponentsRandom</text></g></g><g transform="translate(-110,-70) scale(1,1)"><path fill="none" stroke="#000000" d="M 705 343 L 686 307" stroke-miterlimit="10"/></g><g transform="translate(-110,-70) scale(1,1)"><path fill="#FFFFFF" stroke="none" d="M 702.9326988156437 321.0457719908412 L 686 307 L 688.0413655346072 328.90508677805497"/></g><g transform="translate(-110,-70) scale(1,1)"><path fill="none" stroke="#000000" d="M 702.9326988156437 321.0457719908412 L 686 307 L 688.0413655346072 328.90508677805497 L 702.9326988156437 321.0457719908412" stroke-miterlimit="10"/></g><g transform="translate(-110,-70) scale(1,1)"><path fill="none" stroke="#000000" d="M 171 289 L 332 399" stroke-miterlimit="10"/></g><g transform="translate(-110,-70) scale(1,1)"><path fill="#C0C0C0" stroke="none" d="M 463 496 C 463 486.6111584 491.2060576 479 526 479 C 560.7939424 479 589 486.6111584 589 496 C 589 505.3888416 560.7939424 513 526 513 C 491.2060576 513 463 505.3888416 463 496 Z" opacity="0.2"/></g><g transform="translate(-110,-70) scale(1,1)"><path fill="#ffffff" stroke="none" d="M 456 489 C 456 479.6111584 484.2060576 472 519 472 C 553.7939424 472 582 479.6111584 582 489 C 582 498.3888416 553.7939424 506 519 506 C 484.2060576 506 456 498.3888416 456 489 Z"/></g><g transform="translate(-110,-70) scale(1,1)"><path fill="none" stroke="#000000" d="M 456 489 C 456 479.6111584 484.2060576 472 519 472 C 553.7939424 472 582 479.6111584 582 489 C 582 498.3888416 553.7939424 506 519 506 C 484.2060576 506 456 498.3888416 456 489 Z" stroke-miterlimit="10"/></g><g transform="translate(-110,-70) scale(1,1)"><g><path fill="none" stroke="none"/><text fill="#000000" stroke="none" font-family="Arial" font-size="13px" font-style="normal" font-weight="bold" text-decoration="none" x="478.905029296875" y="494">BD Statistics</text></g></g><g transform="translate(-110,-70) scale(1,1)"><path fill="none" stroke="#000000" d="M 479 471 L 398 435" stroke-miterlimit="10" stroke-dasharray="3"/></g><g transform="translate(-110,-70) scale(1,1)"><path fill="none" stroke="#000000" d="M 408.9964167340228 435.28074723810596 L 398 435 L 405.5771225655166 442.9741591172449" stroke-miterlimit="10"/></g><g transform="translate(-110,-70) scale(1,1)"><g><path fill="none" stroke="none"/><text fill="#000000" stroke="none" font-family="Arial" font-size="13px" font-style="normal" font-weight="normal" text-decoration="none" x="398.5" y="484.5">«extend»</text></g></g></g></svg>